<svg viewBox="0 0 900 560" xmlns="http://www.w3.org/2000/svg">
  <defs>
    <radialGradient id="orbg" cx="38%" cy="35%" r="60%">
      <stop offset="0%" stop-color="#7af0ff"/>
      <stop offset="35%" stop-color="#1a9fff"/>
      <stop offset="70%" stop-color="#0044cc"/>
      <stop offset="100%" stop-color="#001550"/>
    </radialGradient>
    <radialGradient id="glow" cx="50%" cy="50%" r="50%">
      <stop offset="0%" stop-color="#00b4ff" stop-opacity="0.35"/>
      <stop offset="100%" stop-color="#00b4ff" stop-opacity="0"/>
    </radialGradient>
  </defs>
  <rect width="900" height="560" fill="#020c14"/>
  <circle cx="45" cy="30" r="1" fill="#00e5cc" opacity=".4"/>
  <circle cx="120" cy="80" r=".7" fill="#00e5cc" opacity=".3"/>
  <circle cx="780" cy="45" r="1.1" fill="#00e5cc" opacity=".5"/>
  <circle cx="840" cy="120" r=".6" fill="#00e5cc" opacity=".3"/>
  <circle cx="60" cy="200" r=".8" fill="#00e5cc" opacity=".35"/>
  <circle cx="860" cy="300" r="1" fill="#00e5cc" opacity=".4"/>
  <rect x="0" y="0" width="900" height="48" fill="#030f1a"/>
  <line x1="0" y1="48" x2="900" y2="48" stroke="#00e5cc" stroke-opacity=".18" stroke-width="1"/>
  <text x="22" y="30" font-family="monospace" font-size="13" font-weight="bold" fill="#00e5cc" letter-spacing="5">JARVIS</text>
  <circle cx="150" cy="24" r="4" fill="#00e5cc" opacity=".9"/>
  <text x="160" y="29" font-family="monospace" font-size="10" fill="#00c8b0" letter-spacing="2">ONLINE</text>
  <text x="720" y="29" font-family="monospace" font-size="12" fill="#00e5cc" letter-spacing="2">08:33:21</text>
  <rect x="8" y="56" width="180" height="80" rx="5" fill="#030f1a" stroke="#00e5cc" stroke-opacity=".18" stroke-width=".8"/>
  <rect x="8" y="56" width="2" height="80" fill="#00e5cc" opacity=".5"/>
  <text x="18" y="72" font-family="monospace" font-size="8" fill="#00a090" letter-spacing="2">NUCLEO ATIVO</text>
  <text x="18" y="94" font-family="monospace" font-size="26" font-weight="bold" fill="#00e5cc">98%</text>
  <rect x="18" y="118" width="6" height="10" rx="1" fill="#00e5cc" opacity=".7"/>
  <rect x="27" y="112" width="6" height="16" rx="1" fill="#00ff88" opacity=".8"/>
  <rect x="36" y="116" width="6" height="12" rx="1" fill="#00e5cc" opacity=".7"/>
  <rect x="45" y="110" width="6" height="18" rx="1" fill="#00ff88" opacity=".8"/>
  <rect x="54" y="114" width="6" height="14" rx="1" fill="#00e5cc" opacity=".7"/>
  <circle cx="450" cy="190" r="110" fill="url(#glow)"/>
  <circle cx="450" cy="190" r="88" fill="none" stroke="#00e5cc" stroke-opacity=".15" stroke-width="1"/>
  <circle cx="450" cy="190" r="74" fill="none" stroke="#00b4ff" stroke-opacity=".15" stroke-width="1"/>
  <circle cx="450" cy="190" r="62" fill="none" stroke="#00e5cc" stroke-opacity=".12" stroke-width="1"/>
  <circle cx="450" cy="102" r="3" fill="#00e5cc" opacity=".9"/>
  <circle cx="524" cy="190" r="2.5" fill="#00b4ff" opacity=".9"/>
  <circle cx="450" cy="190" r="44" fill="url(#orbg)"/>
  <text x="450" y="298" font-family="monospace" font-size="9" fill="#00a090" text-anchor="middle" letter-spacing="3">AGUARDANDO COMANDO</text>
  <rect x="198" y="320" width="504" height="184" rx="5" fill="#030f1a" stroke="#00e5cc" stroke-opacity=".18" stroke-width=".8"/>
  <rect x="370" y="329" width="90" height="18" rx="9" fill="rgba(255,170,0,.12)" stroke="rgba(255,170,0,.5)" stroke-width=".8"/>
  <text x="415" y="342" font-family="monospace" font-size="8" fill="#ffaa00" text-anchor="middle">registrar BOP</text>
  <text x="208" y="362" font-family="monospace" font-size="8" fill="#00a090" letter-spacing="2">AGENTE</text>
  <rect x="208" y="366" width="280" height="28" rx="3" fill="rgba(0,229,204,.06)" stroke="#00e5cc" stroke-opacity=".2" stroke-width=".8"/>
  <rect x="208" y="366" width="2" height="28" fill="#00e5cc"/>
  <text x="216" y="382" font-family="monospace" font-size="8.5" fill="#a8f0e8">Registro inserido. WhatsApp: ok. Email: ok.</text>
  <rect x="206" y="498" width="370" height="24" rx="3" fill="rgba(0,18,28,.8)" stroke="#00e5cc" stroke-opacity=".2" stroke-width=".8"/>
  <rect x="582" y="498" width="48" height="24" rx="3" fill="none" stroke="#00ff88" stroke-opacity=".6" stroke-width=".8"/>
  <text x="606" y="513" font-family="monospace" font-size="9" fill="#00ff88" text-anchor="middle">MIC</text>
  <rect x="636" y="498" width="58" height="24" rx="3" fill="none" stroke="#00e5cc" stroke-opacity=".6" stroke-width=".8"/>
  <text x="665" y="513" font-family="monospace" font-size="9" fill="#00e5cc" text-anchor="middle">ENVIAR</text>
  <rect x="714" y="56" width="178" height="156" rx="5" fill="#030f1a" stroke="#00e5cc" stroke-opacity=".18" stroke-width=".8"/>
  <rect x="714" y="56" width="2" height="156" fill="#00e5cc" opacity=".5"/>
  <text x="724" y="70" font-family="monospace" font-size="8" fill="#00a090" letter-spacing="2">RADAR DE ATIVIDADE</text>
  <circle cx="803" cy="120" r="50" fill="none" stroke="#00b4a0" stroke-opacity=".14" stroke-width=".5"/>
  <circle cx="803" cy="120" r="35" fill="none" stroke="#00b4a0" stroke-opacity=".14" stroke-width=".5"/>
  <circle cx="803" cy="120" r="20" fill="none" stroke="#00b4a0" stroke-opacity=".14" stroke-width=".5"/>
  <polygon points="803,82 836,130 818,164 788,164 770,130" fill="rgba(0,229,204,.1)" stroke="#00e5cc" stroke-opacity=".5" stroke-width=".8"/>
  <line x1="803" y1="120" x2="845" y2="88" stroke="#00e5cc" stroke-opacity=".6" stroke-width="1.5"/>
  <rect x="0" y="510" width="900" height="50" fill="#030f1a"/>
  <line x1="0" y1="510" x2="900" y2="510" stroke="#00e5cc" stroke-opacity=".12" stroke-width="1"/>
  <text x="12" y="530" font-family="monospace" font-size="9" fill="#00a090">Backend: <tspan fill="#00e5cc">localhost:8000</tspan></text>
  <path d="M4 14L4 4L14 4" fill="none" stroke="#00e5cc" stroke-opacity=".4" stroke-width="1.5"/>
  <path d="M886 14L886 4L876 4" fill="none" stroke="#00e5cc" stroke-opacity=".4" stroke-width="1.5"/>
  <path d="M4 546L4 556L14 556" fill="none" stroke="#00e5cc" stroke-opacity=".4" stroke-width="1.5"/>
  <path d="M886 546L886 556L876 556" fill="none" stroke="#00e5cc" stroke-opacity=".4" stroke-width="1.5"/>
</svg>
